<mxfile host="app.diagrams.net" agent="Mozilla/5.0 (Windows NT 10.0; Win64; x64) AppleWebKit/537.36 (KHTML, like Gecko) Chrome/132.0.0.0 Safari/537.36" version="26.0.11">
  <diagram name="Page-1" id="TBM6BauOUoF67oCryz6n">
    <mxGraphModel dx="934" dy="534" grid="1" gridSize="10" guides="1" tooltips="1" connect="1" arrows="1" fold="1" page="1" pageScale="1" pageWidth="850" pageHeight="1100" math="0" shadow="0">
      <root>
        <mxCell id="0" />
        <mxCell id="1" parent="0" />
        <mxCell id="jupJbazPH-dY56ziawNe-7" value="" style="rounded=0;whiteSpace=wrap;html=1;fillColor=#e1d5e7;strokeColor=#9673a6;" vertex="1" parent="1">
          <mxGeometry x="20" y="10" width="890" height="110" as="geometry" />
        </mxCell>
        <mxCell id="jupJbazPH-dY56ziawNe-9" value="" style="verticalLabelPosition=bottom;shadow=0;dashed=0;align=center;html=1;verticalAlign=top;strokeWidth=1;shape=mxgraph.mockup.graphics.simpleIcon;strokeColor=#999999;" vertex="1" parent="1">
          <mxGeometry x="50" y="30" width="80" height="70" as="geometry" />
        </mxCell>
        <mxCell id="jupJbazPH-dY56ziawNe-11" value="Home" style="text;strokeColor=inherit;align=center;verticalAlign=middle;spacingLeft=10;spacingRight=10;overflow=hidden;points=[[0,0.5],[1,0.5]];portConstraint=eastwest;rotatable=0;whiteSpace=wrap;html=1;fillColor=inherit;fontColor=inherit;fontSize=17;" vertex="1" parent="1">
          <mxGeometry x="200" y="40" width="160" height="30" as="geometry" />
        </mxCell>
        <mxCell id="jupJbazPH-dY56ziawNe-21" value="About Us" style="text;strokeColor=inherit;align=center;verticalAlign=middle;spacingLeft=10;spacingRight=10;overflow=hidden;points=[[0,0.5],[1,0.5]];portConstraint=eastwest;rotatable=0;whiteSpace=wrap;html=1;fillColor=inherit;fontColor=inherit;fontSize=17;" vertex="1" parent="1">
          <mxGeometry x="360" y="40" width="150" height="30" as="geometry" />
        </mxCell>
        <mxCell id="jupJbazPH-dY56ziawNe-23" value="Trips" style="text;strokeColor=inherit;align=center;verticalAlign=middle;spacingLeft=10;spacingRight=10;overflow=hidden;points=[[0,0.5],[1,0.5]];portConstraint=eastwest;rotatable=0;whiteSpace=wrap;html=1;fillColor=inherit;fontColor=inherit;fontSize=17;" vertex="1" parent="1">
          <mxGeometry x="480" y="40" width="130" height="30" as="geometry" />
        </mxCell>
        <mxCell id="jupJbazPH-dY56ziawNe-24" value="Contact Us" style="text;strokeColor=inherit;align=center;verticalAlign=middle;spacingLeft=10;spacingRight=10;overflow=hidden;points=[[0,0.5],[1,0.5]];portConstraint=eastwest;rotatable=0;whiteSpace=wrap;html=1;fillColor=inherit;fontColor=inherit;fontSize=17;" vertex="1" parent="1">
          <mxGeometry x="590" y="40" width="170" height="30" as="geometry" />
        </mxCell>
        <mxCell id="jupJbazPH-dY56ziawNe-34" value="" style="rounded=0;whiteSpace=wrap;html=1;fillColor=#e1d5e7;strokeColor=#9673a6;" vertex="1" parent="1">
          <mxGeometry y="880" width="890" height="60" as="geometry" />
        </mxCell>
        <mxCell id="jupJbazPH-dY56ziawNe-37" value="" style="verticalLabelPosition=bottom;shadow=0;dashed=0;align=center;html=1;verticalAlign=top;strokeWidth=1;shape=mxgraph.mockup.graphics.simpleIcon;strokeColor=#999999;" vertex="1" parent="1">
          <mxGeometry x="650" y="885" width="50" height="50" as="geometry" />
        </mxCell>
        <mxCell id="jupJbazPH-dY56ziawNe-39" value="" style="verticalLabelPosition=bottom;shadow=0;dashed=0;align=center;html=1;verticalAlign=top;strokeWidth=1;shape=mxgraph.mockup.graphics.simpleIcon;strokeColor=#999999;" vertex="1" parent="1">
          <mxGeometry x="730" y="885" width="50" height="50" as="geometry" />
        </mxCell>
        <mxCell id="jupJbazPH-dY56ziawNe-40" value="" style="verticalLabelPosition=bottom;shadow=0;dashed=0;align=center;html=1;verticalAlign=top;strokeWidth=1;shape=mxgraph.mockup.graphics.simpleIcon;strokeColor=#999999;" vertex="1" parent="1">
          <mxGeometry x="820" y="885" width="50" height="50" as="geometry" />
        </mxCell>
        <mxCell id="jupJbazPH-dY56ziawNe-44" value="Footer&amp;nbsp; content and social media links." style="text;html=1;align=center;verticalAlign=middle;whiteSpace=wrap;rounded=0;fontStyle=1;fontSize=16;" vertex="1" parent="1">
          <mxGeometry x="220" y="895" width="350" height="30" as="geometry" />
        </mxCell>
        <mxCell id="jupJbazPH-dY56ziawNe-69" value="Reason for contacting us:" style="strokeWidth=1;shadow=0;dashed=0;align=center;html=1;shape=mxgraph.mockup.forms.rrect;rSize=0;strokeColor=#999999;fillColor=#ffffff;" vertex="1" parent="1">
          <mxGeometry x="20" y="160" width="220" height="390" as="geometry" />
        </mxCell>
        <mxCell id="jupJbazPH-dY56ziawNe-70" value="Contact Us" style="strokeWidth=1;shadow=0;dashed=0;align=center;html=1;shape=mxgraph.mockup.forms.anchor;fontSize=12;fontColor=#666666;align=left;resizeWidth=1;spacingLeft=0;" vertex="1" parent="jupJbazPH-dY56ziawNe-69">
          <mxGeometry width="95" height="20" relative="1" as="geometry">
            <mxPoint x="10" y="10" as="offset" />
          </mxGeometry>
        </mxCell>
        <mxCell id="jupJbazPH-dY56ziawNe-71" value="" style="shape=line;strokeColor=#ddeeff;strokeWidth=2;html=1;resizeWidth=1;" vertex="1" parent="jupJbazPH-dY56ziawNe-69">
          <mxGeometry width="171" height="10" relative="1" as="geometry">
            <mxPoint x="10" y="30" as="offset" />
          </mxGeometry>
        </mxCell>
        <mxCell id="jupJbazPH-dY56ziawNe-72" value="Name" style="strokeWidth=1;shadow=0;dashed=0;align=center;html=1;shape=mxgraph.mockup.forms.anchor;fontSize=12;fontColor=#666666;align=left;resizeWidth=1;spacingLeft=0;" vertex="1" parent="jupJbazPH-dY56ziawNe-69">
          <mxGeometry width="95" height="20" relative="1" as="geometry">
            <mxPoint x="10" y="40" as="offset" />
          </mxGeometry>
        </mxCell>
        <mxCell id="jupJbazPH-dY56ziawNe-73" value="johndoe" style="strokeWidth=1;shadow=0;dashed=0;align=center;html=1;shape=mxgraph.mockup.forms.rrect;rSize=0;strokeColor=#999999;fontColor=#666666;align=left;spacingLeft=5;resizeWidth=1;" vertex="1" parent="jupJbazPH-dY56ziawNe-69">
          <mxGeometry width="142.5" height="25" relative="1" as="geometry">
            <mxPoint x="10" y="60" as="offset" />
          </mxGeometry>
        </mxCell>
        <mxCell id="jupJbazPH-dY56ziawNe-74" value="E-mail" style="strokeWidth=1;shadow=0;dashed=0;align=center;html=1;shape=mxgraph.mockup.forms.anchor;fontSize=12;fontColor=#666666;align=left;resizeWidth=1;spacingLeft=0;" vertex="1" parent="jupJbazPH-dY56ziawNe-69">
          <mxGeometry width="95" height="20" relative="1" as="geometry">
            <mxPoint x="10" y="95" as="offset" />
          </mxGeometry>
        </mxCell>
        <mxCell id="jupJbazPH-dY56ziawNe-75" value="johndoe@gmail.com" style="strokeWidth=1;shadow=0;dashed=0;align=center;html=1;shape=mxgraph.mockup.forms.rrect;rSize=0;strokeColor=#999999;fontColor=#666666;align=left;spacingLeft=5;resizeWidth=1;" vertex="1" parent="jupJbazPH-dY56ziawNe-69">
          <mxGeometry width="142.5" height="25" relative="1" as="geometry">
            <mxPoint x="10" y="115" as="offset" />
          </mxGeometry>
        </mxCell>
        <mxCell id="jupJbazPH-dY56ziawNe-77" value="" style="strokeWidth=1;shadow=0;dashed=0;align=center;html=1;shape=mxgraph.mockup.forms.anchor;fontSize=12;fontColor=#9999ff;align=left;spacingLeft=0;fontStyle=4;resizeWidth=1;" vertex="1" parent="jupJbazPH-dY56ziawNe-69">
          <mxGeometry y="1" width="142.5" height="20" relative="1" as="geometry">
            <mxPoint x="10" y="-110" as="offset" />
          </mxGeometry>
        </mxCell>
        <mxCell id="jupJbazPH-dY56ziawNe-78" value="" style="shape=line;strokeColor=#ddeeff;strokeWidth=2;html=1;resizeWidth=1;" vertex="1" parent="jupJbazPH-dY56ziawNe-69">
          <mxGeometry y="1" width="171" height="10" relative="1" as="geometry">
            <mxPoint x="10" y="-90" as="offset" />
          </mxGeometry>
        </mxCell>
        <mxCell id="jupJbazPH-dY56ziawNe-79" value="" style="strokeWidth=1;shadow=0;dashed=0;align=center;html=1;shape=mxgraph.mockup.forms.anchor;fontSize=12;fontColor=#666666;align=left;spacingLeft=0;resizeWidth=1;" vertex="1" parent="jupJbazPH-dY56ziawNe-69">
          <mxGeometry y="1" width="142.5" height="20" relative="1" as="geometry">
            <mxPoint x="10" y="-70" as="offset" />
          </mxGeometry>
        </mxCell>
        <mxCell id="jupJbazPH-dY56ziawNe-80" value="Send Message" style="strokeWidth=1;shadow=0;dashed=0;align=center;html=1;shape=mxgraph.mockup.forms.rrect;rSize=5;strokeColor=none;fontColor=#ffffff;fillColor=#66bbff;fontSize=16;fontStyle=1;" vertex="1" parent="jupJbazPH-dY56ziawNe-69">
          <mxGeometry y="1" width="140" height="30" relative="1" as="geometry">
            <mxPoint x="20" y="-70" as="offset" />
          </mxGeometry>
        </mxCell>
        <mxCell id="jupJbazPH-dY56ziawNe-106" value="Reservation Request" style="text;strokeColor=none;align=left;verticalAlign=middle;spacingLeft=27;spacingRight=10;overflow=hidden;points=[[0,0.5],[1,0.5]];portConstraint=eastwest;rotatable=0;whiteSpace=wrap;html=1;rSize=5;fillColor=none;fontColor=inherit;fontSize=17;" vertex="1" parent="jupJbazPH-dY56ziawNe-69">
          <mxGeometry x="10" y="210" width="210" height="80" as="geometry" />
        </mxCell>
        <mxCell id="jupJbazPH-dY56ziawNe-107" value="" style="shape=ellipse;resizable=0;fillColor=#EEEEEE;strokeColor=#999999;gradientColor=#cccccc;html=1;" vertex="1" parent="jupJbazPH-dY56ziawNe-106">
          <mxGeometry y="0.5" width="15" height="15" relative="1" as="geometry">
            <mxPoint x="8" y="-7.5" as="offset" />
          </mxGeometry>
        </mxCell>
        <mxCell id="jupJbazPH-dY56ziawNe-108" value="Website Suggestion" style="text;strokeColor=none;align=left;verticalAlign=middle;spacingLeft=27;spacingRight=10;overflow=hidden;points=[[0,0.5],[1,0.5]];portConstraint=eastwest;rotatable=0;whiteSpace=wrap;html=1;rSize=5;fillColor=none;fontColor=#008CFF;fontSize=17;" vertex="1" parent="jupJbazPH-dY56ziawNe-106">
          <mxGeometry y="50" width="210" height="30" as="geometry" />
        </mxCell>
        <mxCell id="jupJbazPH-dY56ziawNe-109" value="" style="shape=ellipse;resizable=0;fillColor=#AAAAAA;gradientColor=#666666;strokeColor=#444444;html=1;" vertex="1" parent="jupJbazPH-dY56ziawNe-108">
          <mxGeometry y="0.5" width="15" height="15" relative="1" as="geometry">
            <mxPoint x="8" y="-7.5" as="offset" />
          </mxGeometry>
        </mxCell>
        <mxCell id="jupJbazPH-dY56ziawNe-110" value="" style="shape=ellipse;resizable=0;fillColor=#444444;strokeColor=none;html=1;" vertex="1" parent="jupJbazPH-dY56ziawNe-109">
          <mxGeometry x="0.2" y="0.2" width="9" height="9" relative="1" as="geometry" />
        </mxCell>
        <mxCell id="jupJbazPH-dY56ziawNe-104" value="General Inquiry" style="text;strokeColor=none;align=left;verticalAlign=middle;spacingLeft=27;spacingRight=10;overflow=hidden;points=[[0,0.5],[1,0.5]];portConstraint=eastwest;rotatable=0;whiteSpace=wrap;html=1;fillColor=none;fontColor=inherit;fontSize=17;" vertex="1" parent="jupJbazPH-dY56ziawNe-69">
          <mxGeometry x="10" y="210" width="210" height="30" as="geometry" />
        </mxCell>
        <mxCell id="jupJbazPH-dY56ziawNe-105" value="" style="shape=ellipse;resizable=0;fillColor=#EEEEEE;strokeColor=#999999;gradientColor=#cccccc;html=1;" vertex="1" parent="jupJbazPH-dY56ziawNe-104">
          <mxGeometry y="0.5" width="15" height="15" relative="1" as="geometry">
            <mxPoint x="8" y="-7.5" as="offset" />
          </mxGeometry>
        </mxCell>
        <mxCell id="jupJbazPH-dY56ziawNe-119" value="" style="verticalLabelPosition=bottom;shadow=0;dashed=0;align=center;html=1;verticalAlign=top;strokeWidth=1;shape=mxgraph.mockup.graphics.simpleIcon;strokeColor=#999999;" vertex="1" parent="1">
          <mxGeometry x="245" y="320" width="435" height="250" as="geometry" />
        </mxCell>
        <mxCell id="jupJbazPH-dY56ziawNe-120" value="Google Map showing office location" style="text;html=1;align=center;verticalAlign=middle;whiteSpace=wrap;rounded=0;fontSize=16;" vertex="1" parent="1">
          <mxGeometry x="378.75" y="370" width="167.5" height="110" as="geometry" />
        </mxCell>
        <mxCell id="jupJbazPH-dY56ziawNe-131" style="edgeStyle=orthogonalEdgeStyle;rounded=0;orthogonalLoop=1;jettySize=auto;html=1;exitX=0.5;exitY=1;exitDx=0;exitDy=0;" edge="1" parent="1" source="jupJbazPH-dY56ziawNe-121">
          <mxGeometry relative="1" as="geometry">
            <mxPoint x="409.52941176470586" y="310" as="targetPoint" />
          </mxGeometry>
        </mxCell>
        <mxCell id="jupJbazPH-dY56ziawNe-121" value="&lt;h1 style=&quot;margin-top: 0px;&quot;&gt;Office Address&lt;/h1&gt;&lt;div&gt;&lt;span style=&quot;color: rgb(91, 91, 91); font-family: Roboto, Arial; background-color: rgb(255, 255, 255);&quot;&gt;Thornhill DG3 4AQ, United Kingdom&lt;/span&gt;&lt;/div&gt;&lt;div&gt;&lt;br&gt;&lt;/div&gt;&lt;div&gt;phone(456) 77768-78665&lt;/div&gt;&lt;div&gt;e-mail:&amp;nbsp;&lt;span style=&quot;background-color: rgb(31, 31, 31); color: rgb(204, 204, 204); font-family: Consolas, &amp;quot;Courier New&amp;quot;, monospace; font-size: 14px; white-space: pre;&quot;&gt;gallowslands90@gmail.com&lt;/span&gt;&lt;/div&gt;" style="text;html=1;whiteSpace=wrap;overflow=hidden;rounded=0;" vertex="1" parent="1">
          <mxGeometry x="280" y="150" width="250" height="160" as="geometry" />
        </mxCell>
        <mxCell id="jupJbazPH-dY56ziawNe-122" value="" style="verticalLabelPosition=bottom;shadow=0;dashed=0;align=center;html=1;verticalAlign=top;strokeWidth=1;shape=mxgraph.mockup.graphics.simpleIcon;strokeColor=#999999;flipV=1;container=0;" vertex="1" parent="1">
          <mxGeometry x="100" y="640" width="170" height="170" as="geometry">
            <mxRectangle x="100" y="640" width="50" height="40" as="alternateBounds" />
          </mxGeometry>
        </mxCell>
        <mxCell id="jupJbazPH-dY56ziawNe-123" value="" style="verticalLabelPosition=bottom;shadow=0;dashed=0;align=center;html=1;verticalAlign=top;strokeWidth=1;shape=mxgraph.mockup.graphics.simpleIcon;strokeColor=#999999;flipV=1;" vertex="1" parent="1">
          <mxGeometry x="382.5" y="640" width="170" height="170" as="geometry" />
        </mxCell>
        <mxCell id="jupJbazPH-dY56ziawNe-124" value="" style="verticalLabelPosition=bottom;shadow=0;dashed=0;align=center;html=1;verticalAlign=top;strokeWidth=1;shape=mxgraph.mockup.graphics.simpleIcon;strokeColor=#999999;flipV=0;" vertex="1" parent="1">
          <mxGeometry x="680" y="640" width="170" height="170" as="geometry" />
        </mxCell>
        <mxCell id="jupJbazPH-dY56ziawNe-125" value="Hlea Kims" style="text;html=1;align=center;verticalAlign=middle;whiteSpace=wrap;rounded=0;" vertex="1" parent="1">
          <mxGeometry x="382.5" y="820" width="60" height="20" as="geometry" />
        </mxCell>
        <mxCell id="jupJbazPH-dY56ziawNe-127" value="Gralia Accurso" style="text;html=1;align=center;verticalAlign=middle;whiteSpace=wrap;rounded=0;" vertex="1" parent="1">
          <mxGeometry x="680" y="810" width="60" height="30" as="geometry" />
        </mxCell>
        <mxCell id="jupJbazPH-dY56ziawNe-129" value="Sandy Chapa" style="text;html=1;align=center;verticalAlign=middle;whiteSpace=wrap;rounded=0;" vertex="1" parent="1">
          <mxGeometry x="90" y="810" width="60" height="30" as="geometry" />
        </mxCell>
      </root>
    </mxGraphModel>
  </diagram>
</mxfile>
